<svg width="4060" height="1350" viewBox="0 0 4060 1350" fill="none" xmlns="http://www.w3.org/2000/svg">
<path d="M357.774 859.636H407.354V990H357.774V859.636ZM527.87 489.364H478.29V359H527.87V489.364ZM286.837 489.364H237.258V359H286.837V489.364ZM478.29 990V859.636H527.87V990H478.29ZM418.032 489.364V359H467.612V489.364H418.032ZM297.516 859.636H347.096V990H297.516V859.636ZM357.774 489.364V359H407.354V489.364H357.774ZM237.258 990V859.636H286.837V990H237.258ZM418.032 859.636H467.612V990H418.032V859.636ZM297.516 489.364V359H347.096V489.364H297.516ZM297.516 703.923V645.077H347.096V703.923H297.516ZM527.87 703.923H478.29V645.077H527.87V703.923ZM538.548 846.961V788.116H588.128V846.961H538.548ZM538.548 775.442V716.597H588.128V775.442H538.548ZM418.032 645.077H467.612V703.923H418.032V645.077ZM226.579 489.364H177V430.519H226.579V489.364ZM226.579 775.442H177V716.597H226.579V775.442ZM357.774 645.077H407.354V703.923H357.774V645.077ZM177 846.961V788.116H226.579V846.961H177ZM177 573.558H226.579V632.403H177V573.558ZM237.258 703.923V645.077H286.837V703.923H237.258ZM177 560.884V502.039H226.579V560.884H177Z" fill="white"/>
<path d="M896.074 990H846.495V859.636H896.074V990ZM956.332 990H906.753V859.636H956.332V990ZM1076.85 990H1027.27V859.636H1076.85V990ZM1076.85 632.403H1027.27V502.039H1076.85V632.403ZM835.816 632.403H786.237V502.039H835.816V632.403ZM967.011 859.636H1016.59V990H967.011V859.636ZM967.011 502.039H1016.59V632.403H967.011V502.039ZM956.332 632.403H906.753V502.039H956.332V632.403ZM786.237 990V859.636H835.816V990H786.237ZM846.495 632.403V502.039H896.074V632.403H846.495ZM1087.53 846.961V788.116H1137.11V846.961H1087.53ZM1087.53 775.442V716.597H1137.11V775.442H1087.53ZM1137.11 703.923H1087.53V645.077H1137.11V703.923ZM906.753 716.597H956.332V775.442H906.753V716.597ZM786.237 775.442V716.597H835.816V775.442H786.237ZM725.979 632.403V573.558H775.558V632.403H725.979ZM1076.85 775.442H1027.27V716.597H1076.85V775.442ZM725.979 859.636H775.558V918.481H725.979V859.636ZM1016.59 775.442H967.011V716.597H1016.59V775.442ZM846.495 716.597H896.074V775.442H846.495V716.597Z" fill="white"/>
<path d="M1595.32 632.403H1545.74V502.039H1595.32V632.403ZM1414.54 632.403H1364.96V502.039H1414.54V632.403ZM1535.06 632.403H1485.48V502.039H1535.06V632.403ZM1304.71 632.403V502.039H1354.28V632.403H1304.71ZM1606 502.039H1655.57V632.403H1606V502.039ZM1425.22 502.039H1474.8V632.403H1425.22V502.039ZM1304.71 918.481V859.636H1354.28V918.481H1304.71ZM1304.71 645.077H1354.28V703.923H1304.71V645.077ZM1304.71 716.597H1354.28V775.442H1304.71V716.597ZM1304.71 990V931.155H1354.28V990H1304.71ZM1304.71 846.961V788.116H1354.28V846.961H1304.71Z" fill="white"/>
<path d="M1994.03 990H1944.45V859.636H1994.03V990ZM2054.29 990H2004.71V859.636H2054.29V990ZM2174.81 990H2125.23V859.636H2174.81V990ZM2174.81 632.403H2125.23V502.039H2174.81V632.403ZM1933.77 632.403H1884.19V502.039H1933.77V632.403ZM2064.97 859.636H2114.55V990H2064.97V859.636ZM2064.97 502.039H2114.55V632.403H2064.97V502.039ZM2054.29 632.403H2004.71V502.039H2054.29V632.403ZM1884.19 990V859.636H1933.77V990H1884.19ZM1944.45 632.403V502.039H1994.03V632.403H1944.45ZM2185.48 846.961V788.116H2235.06V846.961H2185.48ZM2185.48 775.442V716.597H2235.06V775.442H2185.48ZM2235.06 703.923H2185.48V645.077H2235.06V703.923ZM2004.71 716.597H2054.29V775.442H2004.71V716.597ZM1884.19 775.442V716.597H1933.77V775.442H1884.19ZM1823.94 632.403V573.558H1873.52V632.403H1823.94ZM2174.81 775.442H2125.23V716.597H2174.81V775.442ZM1823.94 859.636H1873.52V918.481H1823.94V859.636ZM2114.55 775.442H2064.97V716.597H2114.55V775.442ZM1944.45 716.597H1994.03V775.442H1944.45V716.597Z" fill="white"/>
<path d="M2553.69 859.636H2603.27V990H2553.69V859.636ZM2723.78 489.364H2674.2V359H2723.78V489.364ZM2482.75 489.364H2433.17V359H2482.75V489.364ZM2674.2 990V859.636H2723.78V990H2674.2ZM2613.95 489.364V359H2663.53V489.364H2613.95ZM2493.43 859.636H2543.01V990H2493.43V859.636ZM2553.69 489.364V359H2603.27V489.364H2553.69ZM2433.17 990V859.636H2482.75V990H2433.17ZM2613.95 859.636H2663.53V990H2613.95V859.636ZM2493.43 489.364V359H2543.01V489.364H2493.43ZM2493.43 703.923V645.077H2543.01V703.923H2493.43ZM2723.78 703.923H2674.2V645.077H2723.78V703.923ZM2734.46 846.961V788.116H2784.04V846.961H2734.46ZM2734.46 775.442V716.597H2784.04V775.442H2734.46ZM2613.95 645.077H2663.53V703.923H2613.95V645.077ZM2422.49 489.364H2372.91V430.519H2422.49V489.364ZM2422.49 775.442H2372.91V716.597H2422.49V775.442ZM2553.69 645.077H2603.27V703.923H2553.69V645.077ZM2372.91 846.961V788.116H2422.49V846.961H2372.91ZM2372.91 573.558H2422.49V632.403H2372.91V573.558ZM2433.17 703.923V645.077H2482.75V703.923H2433.17ZM2372.91 560.884V502.039H2422.49V560.884H2372.91Z" fill="white"/>
<path d="M3091.99 990H3042.41V859.636H3091.99V990ZM3152.25 990H3102.67V859.636H3152.25V990ZM3272.76 990H3223.18V859.636H3272.76V990ZM3272.76 632.403H3223.18V502.039H3272.76V632.403ZM3031.73 632.403H2982.15V502.039H3031.73V632.403ZM3162.93 859.636H3212.51V990H3162.93V859.636ZM3162.93 502.039H3212.51V632.403H3162.93V502.039ZM3152.25 632.403H3102.67V502.039H3152.25V632.403ZM2982.15 990V859.636H3031.73V990H2982.15ZM3042.41 632.403V502.039H3091.99V632.403H3042.41ZM3283.44 846.961V788.116H3333.02V846.961H3283.44ZM3283.44 775.442V716.597H3333.02V775.442H3283.44ZM3333.02 703.923H3283.44V645.077H3333.02V703.923ZM3102.67 716.597H3152.25V775.442H3102.67V716.597ZM2982.15 775.442V716.597H3031.73V775.442H2982.15ZM2921.89 632.403V573.558H2971.47V632.403H2921.89ZM3272.76 775.442H3223.18V716.597H3272.76V775.442ZM2921.89 859.636H2971.47V918.481H2921.89V859.636ZM3212.51 775.442H3162.93V716.597H3212.51V775.442ZM3042.41 716.597H3091.99V775.442H3042.41V716.597Z" fill="white"/>
<path d="M3470.87 645.077H3520.45V775.442H3470.87V645.077ZM3711.9 645.077H3761.48V775.442H3711.9V645.077ZM3591.39 775.442V645.077H3640.97V775.442H3591.39ZM3832.42 645.077H3882V775.442H3832.42V645.077ZM3821.74 775.442H3772.16V645.077H3821.74V775.442ZM3580.71 775.442H3531.13V645.077H3580.71V775.442ZM3701.23 775.442H3651.65V645.077H3701.23V775.442ZM3882 846.961H3832.42V788.116H3882V846.961ZM3832.42 990V931.155H3882V990H3832.42ZM3832.42 632.403V573.558H3882V632.403H3832.42ZM3470.87 560.884V502.039H3520.45V560.884H3470.87ZM3470.87 918.481V859.636H3520.45V918.481H3470.87ZM3470.87 846.961V788.116H3520.45V846.961H3470.87ZM3832.42 859.636H3882V918.481H3832.42V859.636ZM3470.87 990V931.155H3520.45V990H3470.87ZM3832.42 502.039H3882V560.884H3832.42V502.039ZM3470.87 632.403V573.558H3520.45V632.403H3470.87Z" fill="white"/>
</svg>
